<svg width="40" height="40" viewBox="0 0 40 40" fill="none" xmlns="http://www.w3.org/2000/svg">
<path fill-rule="evenodd" clip-rule="evenodd" d="M9 20C9 13.9249 13.9249 9 20 9C26.0751 9 31 13.9249 31 20C31 26.0751 26.0751 31 20 31C13.9249 31 9 26.0751 9 20ZM20 7C12.8203 7 7 12.8203 7 20C7 27.1797 12.8203 33 20 33C27.1797 33 33 27.1797 33 20C33 12.8203 27.1797 7 20 7ZM21 13C21 12.4477 20.5523 12 20 12C19.4477 12 19 12.4477 19 13V20C19 20.5523 19.4477 21 20 21H27C27.5523 21 28 20.5523 28 20C28 19.4477 27.5523 19 27 19H21V13Z" fill="black"/>
<path fill-rule="evenodd" clip-rule="evenodd" d="M9 20C9 13.9249 13.9249 9 20 9C26.0751 9 31 13.9249 31 20C31 26.0751 26.0751 31 20 31C13.9249 31 9 26.0751 9 20ZM20 7C12.8203 7 7 12.8203 7 20C7 27.1797 12.8203 33 20 33C27.1797 33 33 27.1797 33 20C33 12.8203 27.1797 7 20 7ZM21 13C21 12.4477 20.5523 12 20 12C19.4477 12 19 12.4477 19 13V20C19 20.5523 19.4477 21 20 21H27C27.5523 21 28 20.5523 28 20C28 19.4477 27.5523 19 27 19H21V13Z" fill="url(#paint0_linear)"/>
<defs>
<linearGradient id="paint0_linear" x1="7" y1="7" x2="37.6821" y2="25.0343" gradientUnits="userSpaceOnUse">
<stop stop-color="#D54820"/>
<stop offset="1"/>
</linearGradient>
</defs>
</svg>
