<svg width="40" height="40" viewBox="0 0 40 40" fill="none" xmlns="http://www.w3.org/2000/svg">
<path fill-rule="evenodd" clip-rule="evenodd" d="M13.2503 11.322C15.3657 9.67884 18.0083 8.86444 20.6817 9.03173C23.3551 9.19903 25.8755 10.3365 27.7696 12.2306C29.6637 14.1247 30.8012 16.6451 30.9685 19.3185C31.1358 21.9919 30.3214 24.6345 28.6783 26.7499C27.0351 28.8654 24.6762 30.3082 22.0445 30.8075C19.4181 31.3058 16.7003 30.8302 14.3995 29.4699C14.1631 29.3244 13.8735 29.2821 13.6006 29.36L9.45605 30.5442L10.6402 26.3996C10.7194 26.1226 10.6738 25.8336 10.5299 25.6C9.17 23.2994 8.6945 20.5819 9.19272 17.9558C9.69201 15.3241 11.1348 12.9652 13.2503 11.322ZM22.4173 32.7725C19.4504 33.3353 16.385 32.8467 13.7453 31.3987L10.0055 32.4672C9.66255 32.5652 9.29964 32.5697 8.95437 32.4802C8.60911 32.3908 8.29404 32.2106 8.04183 31.9584C7.78963 31.7062 7.60946 31.3911 7.51999 31.0459C7.43052 30.7006 7.43502 30.3377 7.533 29.9947L8.60153 26.2549C7.15355 23.6153 6.66491 20.5498 7.22777 17.583C7.81788 14.4726 9.52317 11.6846 12.0234 9.74254C14.5237 7.80046 17.6469 6.83791 20.8066 7.03564C23.9663 7.23337 26.9452 8.57776 29.1838 10.8164C31.4224 13.055 32.7669 16.0339 32.9646 19.1936C33.1623 22.3533 32.1998 25.4765 30.2577 27.9768C28.3157 30.477 25.5277 32.1823 22.4173 32.7725ZM15.4998 20.0049C15.4998 20.8333 14.8282 21.5049 13.9998 21.5049C13.1713 21.5049 12.4998 20.8333 12.4998 20.0049C12.4998 19.1765 13.1713 18.5049 13.9998 18.5049C14.8282 18.5049 15.4998 19.1765 15.4998 20.0049ZM20 21.5049C20.8284 21.5049 21.5 20.8333 21.5 20.0049C21.5 19.1765 20.8284 18.5049 20 18.5049C19.1716 18.5049 18.5 19.1765 18.5 20.0049C18.5 20.8333 19.1716 21.5049 20 21.5049ZM27.5002 20.0049C27.5002 20.8333 26.8287 21.5049 26.0002 21.5049C25.1718 21.5049 24.5002 20.8333 24.5002 20.0049C24.5002 19.1765 25.1718 18.5049 26.0002 18.5049C26.8287 18.5049 27.5002 19.1765 27.5002 20.0049Z" fill="url(#paint0_linear)"/>
<defs>
<linearGradient id="paint0_linear" x1="7" y1="7.01025" x2="37.6703" y2="25.0376" gradientUnits="userSpaceOnUse">
<stop stop-color="#D54820"/>
<stop offset="1"/>
</linearGradient>
</defs>
</svg>
