<svg width="40" height="40" viewBox="0 0 40 40" fill="none" xmlns="http://www.w3.org/2000/svg">
<path fill-rule="evenodd" clip-rule="evenodd" d="M13.636 10.636C15.3239 8.94821 17.6131 8 20 8C22.3869 8 24.6761 8.94821 26.364 10.636C28.0518 12.3239 29 14.6131 29 17C29 21.1399 26.6882 24.9096 24.2454 27.7188C23.0362 29.1094 21.8245 30.2305 20.9149 31.0037C20.5551 31.3095 20.2438 31.5599 20 31.75C19.7562 31.5599 19.4449 31.3095 19.0851 31.0037C18.1755 30.2305 16.9638 29.1094 15.7546 27.7188C13.3118 24.9096 11 21.1399 11 17C11 14.6131 11.9482 12.3239 13.636 10.636ZM19.4259 33.8188C19.4263 33.819 19.4265 33.8192 20 33L19.4265 33.8192C19.7709 34.0603 20.2291 34.0603 20.5735 33.8192L20 33C20.5735 33.8192 20.5737 33.819 20.5741 33.8188L20.5749 33.8182L20.5772 33.8166L20.5846 33.8114L20.61 33.7933C20.6317 33.7778 20.6625 33.7557 20.7019 33.7269C20.7808 33.6693 20.8941 33.5853 21.0369 33.4762C21.3225 33.2579 21.7268 32.9384 22.2101 32.5276C23.1755 31.707 24.4638 30.5156 25.7546 29.0312C28.3118 26.0904 31 21.8601 31 17C31 14.0826 29.8411 11.2847 27.7782 9.22183C25.7153 7.15893 22.9174 6 20 6C17.0826 6 14.2847 7.15893 12.2218 9.22183C10.1589 11.2847 9 14.0826 9 17C9 21.8601 11.6882 26.0904 14.2454 29.0312C15.5362 30.5156 16.8245 31.707 17.7899 32.5276C18.2732 32.9384 18.6775 33.2579 18.9631 33.4762C19.1059 33.5853 19.2192 33.6693 19.2981 33.7269C19.3375 33.7557 19.3683 33.7778 19.39 33.7933L19.4154 33.8114L19.4228 33.8166L19.4251 33.8182L19.4259 33.8188ZM17 17C17 15.3431 18.3431 14 20 14C21.6569 14 23 15.3431 23 17C23 18.6569 21.6569 20 20 20C18.3431 20 17 18.6569 17 17ZM20 12C17.2386 12 15 14.2386 15 17C15 19.7614 17.2386 22 20 22C22.7614 22 25 19.7614 25 17C25 14.2386 22.7614 12 20 12Z" fill="url(#paint0_linear)"/>
<defs>
<linearGradient id="paint0_linear" x1="9" y1="6" x2="37.7906" y2="19.2962" gradientUnits="userSpaceOnUse">
<stop stop-color="#D54820"/>
<stop offset="1"/>
</linearGradient>
</defs>
</svg>
