<svg width="40" height="40" viewBox="0 0 40 40" fill="none" xmlns="http://www.w3.org/2000/svg">
<path d="M8.67379 9.94576L15.9994 31.1087C16.0684 31.308 16.1986 31.4804 16.3715 31.6012C16.5443 31.722 16.7509 31.7851 16.9618 31.7814C17.1726 31.7778 17.3769 31.7075 17.5455 31.5808C17.714 31.454 17.8382 31.2772 17.9002 31.0757L20.8446 21.5062C20.8926 21.3503 20.978 21.2085 21.0933 21.0932C21.2086 20.9778 21.3504 20.8925 21.5063 20.8445L31.0758 17.9001C31.2773 17.838 31.4541 17.7139 31.5809 17.5453C31.7077 17.3768 31.7779 17.1725 31.7815 16.9617C31.7852 16.7508 31.7221 16.5442 31.6013 16.3713C31.4805 16.1985 31.3081 16.0683 31.1088 15.9993L9.94589 8.67367C9.76855 8.61228 9.57751 8.60203 9.39462 8.6441C9.21173 8.68617 9.04437 8.77885 8.91167 8.91155C8.77897 9.04425 8.68629 9.21161 8.64422 9.3945C8.60215 9.57739 8.6124 9.76842 8.67379 9.94576V9.94576Z" stroke="black" stroke-width="2" stroke-linecap="round" stroke-linejoin="round"/>
<path d="M8.67379 9.94576L15.9994 31.1087C16.0684 31.308 16.1986 31.4804 16.3715 31.6012C16.5443 31.722 16.7509 31.7851 16.9618 31.7814C17.1726 31.7778 17.3769 31.7075 17.5455 31.5808C17.714 31.454 17.8382 31.2772 17.9002 31.0757L20.8446 21.5062C20.8926 21.3503 20.978 21.2085 21.0933 21.0932C21.2086 20.9778 21.3504 20.8925 21.5063 20.8445L31.0758 17.9001C31.2773 17.838 31.4541 17.7139 31.5809 17.5453C31.7077 17.3768 31.7779 17.1725 31.7815 16.9617C31.7852 16.7508 31.7221 16.5442 31.6013 16.3713C31.4805 16.1985 31.3081 16.0683 31.1088 15.9993L9.94589 8.67367C9.76855 8.61228 9.57751 8.60203 9.39462 8.6441C9.21173 8.68617 9.04437 8.77885 8.91167 8.91155C8.77897 9.04425 8.68629 9.21161 8.64422 9.3945C8.60215 9.57739 8.6124 9.76842 8.67379 9.94576V9.94576Z" stroke="url(#paint0_linear)" stroke-width="2" stroke-linecap="round" stroke-linejoin="round"/>
<defs>
<linearGradient id="paint0_linear" x1="8.61877" y1="8.61865" x2="35.9529" y2="24.685" gradientUnits="userSpaceOnUse">
<stop stop-color="#D54820"/>
<stop offset="1"/>
</linearGradient>
</defs>
</svg>
