<svg width="40" height="40" viewBox="0 0 40 40" fill="none" xmlns="http://www.w3.org/2000/svg">
<path fill-rule="evenodd" clip-rule="evenodd" d="M12.6499 9C12.263 9 11.8844 9.1122 11.56 9.32302C11.2357 9.53383 10.9794 9.8342 10.8223 10.1877L7.35013 18H6C5.44772 18 5 18.4477 5 19C5 19.5523 5.44772 20 6 20H7V27V30C7 30.5304 7.21071 31.0391 7.58579 31.4142C7.96086 31.7893 8.46957 32 9 32H12C12.5304 32 13.0391 31.7893 13.4142 31.4142C13.7893 31.0391 14 30.5304 14 30V28H26V30C26 30.5304 26.2107 31.0391 26.5858 31.4142C26.9609 31.7893 27.4696 32 28 32H31C31.5304 32 32.0391 31.7893 32.4142 31.4142C32.7893 31.0391 33 30.5304 33 30V27V20H34C34.5523 20 35 19.5523 35 19C35 18.4477 34.5523 18 34 18H32.6499L29.1777 10.1877C29.0206 9.8342 28.7643 9.53383 28.44 9.32301C28.1156 9.1122 27.737 9 27.3501 9H12.6499ZM30.4612 18L27.3501 11L12.6499 11L9.53876 18H30.4612ZM9 20V26H13H27H31V20H9ZM28 28V30H31V28H28ZM12 28H9V30H12V28ZM12 22C11.4477 22 11 22.4477 11 23C11 23.5523 11.4477 24 12 24H14C14.5523 24 15 23.5523 15 23C15 22.4477 14.5523 22 14 22H12ZM25 23C25 22.4477 25.4477 22 26 22H28C28.5523 22 29 22.4477 29 23C29 23.5523 28.5523 24 28 24H26C25.4477 24 25 23.5523 25 23Z" fill="url(#paint0_linear)"/>
<defs>
<linearGradient id="paint0_linear" x1="5" y1="9" x2="35" y2="32" gradientUnits="userSpaceOnUse">
<stop stop-color="#D54820"/>
<stop offset="1"/>
</linearGradient>
</defs>
</svg>
