<svg width="85" height="33" viewBox="0 0 85 33" fill="none" xmlns="http://www.w3.org/2000/svg">
<path d="M3.70508 32.0742H0V16.1465C0 13.8496 0.788411 11.9036 2.36523 10.3086C3.11263 9.5612 3.97852 8.97786 4.96289 8.55859C5.94727 8.13932 6.99544 7.92969 8.10742 7.92969C9.2194 7.92969 10.2676 8.13932 11.252 8.55859C12.2363 8.97786 13.0977 9.5612 13.8359 10.3086C14.5833 11.0469 15.1667 11.9082 15.5859 12.8926C16.0052 13.8678 16.2148 14.916 16.2148 16.0371C16.2148 17.1582 16.0052 18.2109 15.5859 19.1953C15.1667 20.1706 14.5833 21.0319 13.8359 21.7793C13.0977 22.5176 12.2363 23.0964 11.252 23.5156C10.2767 23.9349 9.22852 24.1445 8.10742 24.1445C6.48503 24.1445 5.01758 23.7116 3.70508 22.8457V32.0742ZM8.10742 20.4395C9.32878 20.4395 10.3678 20.0111 11.2246 19.1543C12.0905 18.2884 12.5234 17.2493 12.5234 16.0371C12.5234 14.8158 12.0905 13.7767 11.2246 12.9199C10.3678 12.0632 9.32878 11.6348 8.10742 11.6348C6.88607 11.6348 5.84701 12.0632 4.99023 12.9199C4.13346 13.8223 3.70508 14.8613 3.70508 16.0371C3.70508 17.2129 4.13346 18.252 4.99023 19.1543C5.85612 20.0111 6.89518 20.4395 8.10742 20.4395Z" fill="white"/>
<path d="M23.2012 24.1445H19.4961V7.91602H23.2012V24.1445ZM21.3418 4.77148C20.6855 4.77148 20.1204 4.53906 19.6465 4.07422C19.1816 3.60938 18.9492 3.04883 18.9492 2.39258C18.9492 1.73633 19.1816 1.17578 19.6465 0.710938C20.1204 0.236979 20.6855 0 21.3418 0C21.998 0 22.5586 0.232422 23.0234 0.697266C23.4974 1.16211 23.7344 1.72721 23.7344 2.39258C23.7344 3.04883 23.4974 3.60938 23.0234 4.07422C22.5586 4.53906 21.998 4.77148 21.3418 4.77148Z" fill="white"/>
<path d="M41.0293 24.1445H37.3242V14.8887C37.3242 14.0137 36.9915 13.2572 36.3262 12.6191C35.6152 11.9629 34.7585 11.6348 33.7559 11.6348C32.7441 11.6348 31.8874 11.9629 31.1855 12.6191C30.5111 13.2572 30.1738 14.0137 30.1738 14.8887V24.1445H26.4688V14.8887C26.4688 13.9225 26.6602 13.0156 27.043 12.168C27.4349 11.3112 27.9635 10.5684 28.6289 9.93945C29.3034 9.31055 30.0781 8.81836 30.9531 8.46289C31.8281 8.10742 32.7624 7.92969 33.7559 7.92969C34.7493 7.92969 35.679 8.10742 36.5449 8.46289C37.4199 8.81836 38.1901 9.31055 38.8555 9.93945C39.5299 10.5684 40.0586 11.3112 40.4414 12.168C40.8333 13.0156 41.0293 13.9225 41.0293 14.8887V24.1445Z" fill="white"/>
<path d="M47.4824 32.0742H43.7773V16.1465C43.7773 13.8496 44.5658 11.9036 46.1426 10.3086C46.89 9.5612 47.7559 8.97786 48.7402 8.55859C49.7246 8.13932 50.7728 7.92969 51.8848 7.92969C52.9967 7.92969 54.0449 8.13932 55.0293 8.55859C56.0137 8.97786 56.875 9.5612 57.6133 10.3086C58.3607 11.0469 58.944 11.9082 59.3633 12.8926C59.7826 13.8678 59.9922 14.916 59.9922 16.0371C59.9922 17.1582 59.7826 18.2109 59.3633 19.1953C58.944 20.1706 58.3607 21.0319 57.6133 21.7793C56.875 22.5176 56.0137 23.0964 55.0293 23.5156C54.054 23.9349 53.0059 24.1445 51.8848 24.1445C50.2624 24.1445 48.7949 23.7116 47.4824 22.8457V32.0742ZM51.8848 20.4395C53.1061 20.4395 54.1452 20.0111 55.002 19.1543C55.8678 18.2884 56.3008 17.2493 56.3008 16.0371C56.3008 14.8158 55.8678 13.7767 55.002 12.9199C54.1452 12.0632 53.1061 11.6348 51.8848 11.6348C50.6634 11.6348 49.6243 12.0632 48.7676 12.9199C47.9108 13.8223 47.4824 14.8613 47.4824 16.0371C47.4824 17.2129 47.9108 18.252 48.7676 19.1543C49.6335 20.0111 50.6725 20.4395 51.8848 20.4395Z" fill="white"/>
<path d="M66.9785 24.1445H63.2734V7.91602H66.9785V24.1445ZM65.1191 4.77148C64.4629 4.77148 63.8978 4.53906 63.4238 4.07422C62.959 3.60938 62.7266 3.04883 62.7266 2.39258C62.7266 1.73633 62.959 1.17578 63.4238 0.710938C63.8978 0.236979 64.4629 0 65.1191 0C65.7754 0 66.3359 0.232422 66.8008 0.697266C67.2747 1.16211 67.5117 1.72721 67.5117 2.39258C67.5117 3.04883 67.2747 3.60938 66.8008 4.07422C66.3359 4.53906 65.7754 4.77148 65.1191 4.77148Z" fill="white"/>
<path d="M84.8066 24.1445H81.1016V14.8887C81.1016 14.0137 80.7689 13.2572 80.1035 12.6191C79.3926 11.9629 78.5358 11.6348 77.5332 11.6348C76.5215 11.6348 75.6647 11.9629 74.9629 12.6191C74.2884 13.2572 73.9512 14.0137 73.9512 14.8887V24.1445H70.2461V14.8887C70.2461 13.9225 70.4375 13.0156 70.8203 12.168C71.2122 11.3112 71.7409 10.5684 72.4062 9.93945C73.0807 9.31055 73.8555 8.81836 74.7305 8.46289C75.6055 8.10742 76.5397 7.92969 77.5332 7.92969C78.5267 7.92969 79.4564 8.10742 80.3223 8.46289C81.1973 8.81836 81.9674 9.31055 82.6328 9.93945C83.3073 10.5684 83.8359 11.3112 84.2188 12.168C84.6107 13.0156 84.8066 13.9225 84.8066 14.8887V24.1445Z" fill="white"/>
</svg>
