<svg width="85" height="32" viewBox="0 0 85 32" fill="none" xmlns="http://www.w3.org/2000/svg">
<path d="M3.6965 32H0V16.1091C0 13.8176 0.786587 11.8761 2.35976 10.2847C3.10543 9.53907 3.96931 8.95709 4.95141 8.53879C5.9335 8.12049 6.97926 7.91134 8.08866 7.91134C9.19807 7.91134 10.2438 8.12049 11.2259 8.53879C12.208 8.95709 13.0673 9.53907 13.8039 10.2847C14.5496 11.0213 15.1316 11.8806 15.5499 12.8627C15.9682 13.8357 16.1773 14.8815 16.1773 16C16.1773 17.1185 15.9682 18.1688 15.5499 19.1509C15.1316 20.1239 14.5496 20.9832 13.8039 21.7289C13.0673 22.4655 12.208 23.0429 11.2259 23.4612C10.2529 23.8795 9.20716 24.0887 8.08866 24.0887C6.47002 24.0887 5.00597 23.6567 3.6965 22.7928V32ZM8.08866 20.3922C9.30719 20.3922 10.3438 19.9648 11.1986 19.11C12.0625 18.2461 12.4945 17.2094 12.4945 16C12.4945 14.7815 12.0625 13.7448 11.1986 12.89C10.3438 12.0352 9.30719 11.6078 8.08866 11.6078C6.87013 11.6078 5.83348 12.0352 4.97869 12.89C4.1239 13.7903 3.6965 14.8269 3.6965 16C3.6965 17.1731 4.1239 18.2097 4.97869 19.11C5.84257 19.9648 6.87923 20.3922 8.08866 20.3922Z" fill="#CDCDCD"/>
<path d="M23.1475 24.0887H19.451V7.8977H23.1475V24.0887ZM21.2924 4.76044C20.6377 4.76044 20.0739 4.52856 19.601 4.06479C19.1373 3.60102 18.9054 3.04177 18.9054 2.38704C18.9054 1.73231 19.1373 1.17306 19.601 0.709292C20.0739 0.236431 20.6377 0 21.2924 0C21.9471 0 22.5064 0.231884 22.9702 0.695652C23.443 1.15942 23.6795 1.72322 23.6795 2.38704C23.6795 3.04177 23.443 3.60102 22.9702 4.06479C22.5064 4.52856 21.9471 4.76044 21.2924 4.76044Z" fill="#CDCDCD"/>
<path d="M40.9344 24.0887H37.2378V14.8542C37.2378 13.9812 36.9059 13.2265 36.2421 12.5899C35.5328 11.9352 34.678 11.6078 33.6777 11.6078C32.6684 11.6078 31.8136 11.9352 31.1134 12.5899C30.4405 13.2265 30.104 13.9812 30.104 14.8542V24.0887H26.4075V14.8542C26.4075 13.8903 26.5985 12.9855 26.9804 12.1398C27.3714 11.285 27.8988 10.5439 28.5627 9.91645C29.2356 9.289 30.0085 8.79795 30.8815 8.44331C31.7545 8.08866 32.6866 7.91134 33.6777 7.91134C34.6689 7.91134 35.5965 8.08866 36.4604 8.44331C37.3333 8.79795 38.1017 9.289 38.7656 9.91645C39.4385 10.5439 39.9659 11.285 40.3478 12.1398C40.7388 12.9855 40.9344 13.8903 40.9344 14.8542V24.0887Z" fill="#CDCDCD"/>
<path d="M47.3725 32H43.676V16.1091C43.676 13.8176 44.4626 11.8761 46.0358 10.2847C46.7815 9.53907 47.6454 8.95709 48.6274 8.53879C49.6095 8.12049 50.6553 7.91134 51.7647 7.91134C52.8741 7.91134 53.9199 8.12049 54.902 8.53879C55.8841 8.95709 56.7434 9.53907 57.48 10.2847C58.2256 11.0213 58.8076 11.8806 59.2259 12.8627C59.6442 13.8357 59.8534 14.8815 59.8534 16C59.8534 17.1185 59.6442 18.1688 59.2259 19.1509C58.8076 20.1239 58.2256 20.9832 57.48 21.7289C56.7434 22.4655 55.8841 23.0429 54.902 23.4612C53.929 23.8795 52.8832 24.0887 51.7647 24.0887C50.1461 24.0887 48.682 23.6567 47.3725 22.7928V32ZM51.7647 20.3922C52.9832 20.3922 54.0199 19.9648 54.8747 19.11C55.7386 18.2461 56.1705 17.2094 56.1705 16C56.1705 14.7815 55.7386 13.7448 54.8747 12.89C54.0199 12.0352 52.9832 11.6078 51.7647 11.6078C50.5462 11.6078 49.5095 12.0352 48.6547 12.89C47.7999 13.7903 47.3725 14.8269 47.3725 16C47.3725 17.1731 47.7999 18.2097 48.6547 19.11C49.5186 19.9648 50.5553 20.3922 51.7647 20.3922Z" fill="#CDCDCD"/>
<path d="M66.8235 24.0887H63.127V7.8977H66.8235V24.0887ZM64.9685 4.76044C64.3137 4.76044 63.7499 4.52856 63.2771 4.06479C62.8133 3.60102 62.5814 3.04177 62.5814 2.38704C62.5814 1.73231 62.8133 1.17306 63.2771 0.709292C63.7499 0.236431 64.3137 0 64.9685 0C65.6232 0 66.1824 0.231884 66.6462 0.695652C67.1191 1.15942 67.3555 1.72322 67.3555 2.38704C67.3555 3.04177 67.1191 3.60102 66.6462 4.06479C66.1824 4.52856 65.6232 4.76044 64.9685 4.76044Z" fill="#CDCDCD"/>
<path d="M84.6104 24.0887H80.9139V14.8542C80.9139 13.9812 80.582 13.2265 79.9182 12.5899C79.2089 11.9352 78.3541 11.6078 77.3538 11.6078C76.3444 11.6078 75.4896 11.9352 74.7894 12.5899C74.1165 13.2265 73.78 13.9812 73.78 14.8542V24.0887H70.0835V14.8542C70.0835 13.8903 70.2745 12.9855 70.6564 12.1398C71.0475 11.285 71.5749 10.5439 72.2387 9.91645C72.9116 9.289 73.6846 8.79795 74.5575 8.44331C75.4305 8.08866 76.3626 7.91134 77.3538 7.91134C78.345 7.91134 79.2725 8.08866 80.1364 8.44331C81.0094 8.79795 81.7778 9.289 82.4416 9.91645C83.1145 10.5439 83.6419 11.285 84.0239 12.1398C84.4149 12.9855 84.6104 13.8903 84.6104 14.8542V24.0887Z" fill="#CDCDCD"/>
</svg>
