<svg width="26" height="26" viewBox="0 0 26 26" fill="none" xmlns="http://www.w3.org/2000/svg">
<path fill-rule="evenodd" clip-rule="evenodd" d="M12.8 7H14.2C15.0731 7 15.6076 7.00156 16.0075 7.03423C16.1938 7.04945 16.3065 7.06857 16.375 7.08469C16.4076 7.09236 16.4276 7.09879 16.4384 7.10265C16.4488 7.10636 16.4532 7.10858 16.454 7.10899C16.6422 7.20487 16.7951 7.35785 16.891 7.54601C16.8914 7.54681 16.8936 7.55118 16.8973 7.56158C16.9012 7.57241 16.9076 7.59244 16.9153 7.625C16.9314 7.69345 16.9505 7.80617 16.9658 7.99247C16.9984 8.39239 17 8.92692 17 9.8V16.2C17 17.0731 16.9984 17.6076 16.9658 18.0075C16.9505 18.1938 16.9314 18.3065 16.9153 18.375C16.9076 18.4076 16.9012 18.4276 16.8973 18.4384C16.8936 18.4488 16.8914 18.4532 16.891 18.454C16.7951 18.6422 16.6422 18.7951 16.454 18.891C16.4532 18.8914 16.4488 18.8936 16.4384 18.8973C16.4276 18.9012 16.4076 18.9076 16.375 18.9153C16.3065 18.9314 16.1938 18.9505 16.0075 18.9658C15.6076 18.9984 15.0731 19 14.2 19H12.8C11.9269 19 11.3924 18.9984 10.9925 18.9658C10.8062 18.9505 10.6935 18.9314 10.625 18.9153C10.5924 18.9076 10.5724 18.9012 10.5616 18.8973C10.5512 18.8936 10.5468 18.8914 10.546 18.891C10.3578 18.7951 10.2049 18.6422 10.109 18.454C10.1086 18.4532 10.1064 18.4488 10.1027 18.4384C10.0988 18.4276 10.0924 18.4076 10.0847 18.375C10.0686 18.3065 10.0495 18.1938 10.0342 18.0075C10.0016 17.6076 10 17.0731 10 16.2V9.8C10 8.92692 10.0016 8.39239 10.0342 7.99247C10.0495 7.80617 10.0686 7.69345 10.0847 7.625C10.0924 7.59244 10.0988 7.57241 10.1027 7.56158C10.1064 7.55118 10.1086 7.54681 10.109 7.54601C10.2049 7.35785 10.3578 7.20487 10.546 7.10899C10.5468 7.10858 10.5512 7.10636 10.5616 7.10265C10.5724 7.09879 10.5924 7.09236 10.625 7.08469C10.6935 7.06857 10.8062 7.04945 10.9925 7.03423C11.3924 7.00156 11.9269 7 12.8 7ZM8 9.8C8 8.11984 8 7.27976 8.32698 6.63803C8.6146 6.07354 9.07354 5.6146 9.63803 5.32698C10.2798 5 11.1198 5 12.8 5H14.2C15.8802 5 16.7202 5 17.362 5.32698C17.9265 5.6146 18.3854 6.07354 18.673 6.63803C19 7.27976 19 8.11984 19 9.8V16.2C19 17.8802 19 18.7202 18.673 19.362C18.3854 19.9265 17.9265 20.3854 17.362 20.673C16.7202 21 15.8802 21 14.2 21H12.8C11.1198 21 10.2798 21 9.63803 20.673C9.07354 20.3854 8.6146 19.9265 8.32698 19.362C8 18.7202 8 17.8802 8 16.2V9.8ZM13 16C12.4477 16 12 16.4477 12 17C12 17.5523 12.4477 18 13 18H14C14.5523 18 15 17.5523 15 17C15 16.4477 14.5523 16 14 16H13Z" fill="white"/>
</svg>
